<svg width="52" height="52" viewBox="0 0 52 52" fill="none" xmlns="http://www.w3.org/2000/svg">
<rect width="52" height="52" rx="12" fill="#E8F1FC"/>
<path d="M33.976 30.472C33.976 31.6453 33.6667 32.7333 33.048 33.736C32.4507 34.7173 31.5547 35.528 30.36 36.168C29.1867 36.7867 27.7893 37.128 26.168 37.192V39.784H24.12V37.16C21.8587 36.968 20.0347 36.296 18.648 35.144C17.2613 33.9707 16.5253 32.3813 16.44 30.376H22.264C22.392 31.656 23.0107 32.4773 24.12 32.84V27.784C22.456 27.3573 21.1227 26.9413 20.12 26.536C19.1387 26.1307 18.2747 25.48 17.528 24.584C16.7813 23.688 16.408 22.4613 16.408 20.904C16.408 18.9627 17.1227 17.4053 18.552 16.232C20.0027 15.0587 21.8587 14.3973 24.12 14.248V11.656H26.168V14.248C28.408 14.4187 30.1787 15.0693 31.48 16.2C32.7813 17.3307 33.5067 18.8987 33.656 20.904H27.8C27.672 19.752 27.128 19.0053 26.168 18.664V23.624C27.9387 24.1147 29.304 24.552 30.264 24.936C31.224 25.32 32.0773 25.96 32.824 26.856C33.592 27.7307 33.976 28.936 33.976 30.472ZM22.2 20.648C22.2 21.1813 22.36 21.6293 22.68 21.992C23.0213 22.3547 23.5013 22.6747 24.12 22.952V18.504C23.5227 18.6107 23.0533 18.8453 22.712 19.208C22.3707 19.5493 22.2 20.0293 22.2 20.648ZM26.168 32.936C26.808 32.8293 27.3093 32.5733 27.672 32.168C28.056 31.7627 28.248 31.2613 28.248 30.664C28.248 30.1093 28.0667 29.6613 27.704 29.32C27.3627 28.9573 26.8507 28.648 26.168 28.392V32.936Z" fill="#0E67DD"/>
</svg>
