<svg width="52" height="52" viewBox="0 0 52 52" fill="none" xmlns="http://www.w3.org/2000/svg">
<rect width="52" height="52" rx="12" fill="#E8F1FC"/>
<path d="M47 39.0001C47 37.2929 46.6637 35.6025 46.0104 34.0252C45.3571 32.448 44.3995 31.0149 43.1924 29.8077C41.9852 28.6006 40.5521 27.643 38.9749 26.9897C37.3977 26.3364 35.7072 28.0001 34 28.0001C32.2928 28.0001 30.6023 26.3364 29.0251 26.9897C27.4479 27.643 26.0148 28.6006 24.8076 29.8077C23.6004 31.0149 22.6429 32.448 21.9896 34.0252C21.3363 35.6025 21 37.2929 21 39.0001L34 39.0001H47Z" fill="#0E67DD" stroke="#E8F1FC" stroke-width="2"/>
<circle cx="34" cy="18" r="7" fill="#0E67DD"/>
<circle cx="19" cy="20" r="7" fill="#0E67DD"/>
<path d="M32 41.0001C32 39.2929 31.6637 37.6025 31.0104 36.0252C30.3571 34.448 29.3995 33.0149 28.1924 31.8077C26.9852 30.6006 25.5521 29.643 23.9749 28.9897C22.3977 28.3364 20.7072 30.0001 19 30.0001C17.2928 30.0001 15.6023 28.3364 14.0251 28.9897C12.4479 29.643 11.0148 30.6006 9.80761 31.8077C8.60045 33.0149 7.64288 34.448 6.98957 36.0252C6.33625 37.6025 6 39.2929 6 41.0001L19 41.0001H32Z" fill="#0E67DD" stroke="#E8F1FC" stroke-width="2"/>
</svg>
