<svg width="213" height="74" viewBox="0 0 213 74" fill="none" xmlns="http://www.w3.org/2000/svg">
<path d="M27.424 12.536V35H21.952V21.528L16.928 35H12.512L7.456 21.496V35H1.984V12.536H8.448L14.752 28.088L20.992 12.536H27.424ZM48.191 25.784C48.191 26.296 48.159 26.8293 48.095 27.384H35.711C35.7963 28.4933 36.1483 29.3467 36.767 29.944C37.407 30.52 38.1857 30.808 39.103 30.808C40.4683 30.808 41.4177 30.232 41.951 29.08H47.775C47.4763 30.2533 46.9323 31.3093 46.143 32.248C45.375 33.1867 44.4043 33.9227 43.231 34.456C42.0577 34.9893 40.7457 35.256 39.295 35.256C37.5457 35.256 35.9883 34.8827 34.623 34.136C33.2577 33.3893 32.191 32.3227 31.423 30.936C30.655 29.5493 30.271 27.928 30.271 26.072C30.271 24.216 30.6443 22.5947 31.391 21.208C32.159 19.8213 33.2257 18.7547 34.591 18.008C35.9563 17.2613 37.5243 16.888 39.295 16.888C41.023 16.888 42.559 17.2507 43.903 17.976C45.247 18.7013 46.2923 19.736 47.039 21.08C47.807 22.424 48.191 23.992 48.191 25.784ZM42.591 24.344C42.591 23.4053 42.271 22.6587 41.631 22.104C40.991 21.5493 40.191 21.272 39.231 21.272C38.3137 21.272 37.535 21.5387 36.895 22.072C36.2763 22.6053 35.8923 23.3627 35.743 24.344H42.591ZM49.9898 26.04C49.9898 24.2053 50.3311 22.5947 51.0138 21.208C51.7178 19.8213 52.6671 18.7547 53.8618 18.008C55.0564 17.2613 56.3898 16.888 57.8618 16.888C59.0351 16.888 60.1018 17.1333 61.0618 17.624C62.0431 18.1147 62.8111 18.776 63.3658 19.608V11.32H68.8378V35H63.3658V32.44C62.8538 33.2933 62.1178 33.976 61.1578 34.488C60.2191 35 59.1204 35.256 57.8618 35.256C56.3898 35.256 55.0564 34.8827 53.8618 34.136C52.6671 33.368 51.7178 32.2907 51.0138 30.904C50.3311 29.496 49.9898 27.8747 49.9898 26.04ZM63.3658 26.072C63.3658 24.7067 62.9818 23.6293 62.2138 22.84C61.4671 22.0507 60.5498 21.656 59.4618 21.656C58.3738 21.656 57.4458 22.0507 56.6778 22.84C55.9311 23.608 55.5578 24.6747 55.5578 26.04C55.5578 27.4053 55.9311 28.4933 56.6778 29.304C57.4458 30.0933 58.3738 30.488 59.4618 30.488C60.5498 30.488 61.4671 30.0933 62.2138 29.304C62.9818 28.5147 63.3658 27.4373 63.3658 26.072ZM75.5485 15.288C74.5885 15.288 73.7992 15.0107 73.1805 14.456C72.5832 13.88 72.2845 13.176 72.2845 12.344C72.2845 11.4907 72.5832 10.7867 73.1805 10.232C73.7992 9.656 74.5885 9.368 75.5485 9.368C76.4872 9.368 77.2552 9.656 77.8525 10.232C78.4712 10.7867 78.7805 11.4907 78.7805 12.344C78.7805 13.176 78.4712 13.88 77.8525 14.456C77.2552 15.0107 76.4872 15.288 75.5485 15.288ZM78.2685 17.144V35H72.7965V17.144H78.2685ZM81.146 26.072C81.146 24.216 81.5193 22.5947 82.266 21.208C83.034 19.8213 84.09 18.7547 85.434 18.008C86.7993 17.2613 88.3567 16.888 90.106 16.888C92.346 16.888 94.2127 17.4747 95.706 18.648C97.2207 19.8213 98.2127 21.4747 98.682 23.608H92.858C92.3673 22.2427 91.418 21.56 90.01 21.56C89.0073 21.56 88.2073 21.9547 87.61 22.744C87.0127 23.512 86.714 24.6213 86.714 26.072C86.714 27.5227 87.0127 28.6427 87.61 29.432C88.2073 30.2 89.0073 30.584 90.01 30.584C91.418 30.584 92.3673 29.9013 92.858 28.536H98.682C98.2127 30.6267 97.2207 32.2693 95.706 33.464C94.1913 34.6587 92.3247 35.256 90.106 35.256C88.3567 35.256 86.7993 34.8827 85.434 34.136C84.09 33.3893 83.034 32.3227 82.266 30.936C81.5193 29.5493 81.146 27.928 81.146 26.072ZM100.521 26.04C100.521 24.2053 100.862 22.5947 101.545 21.208C102.249 19.8213 103.198 18.7547 104.393 18.008C105.588 17.2613 106.921 16.888 108.393 16.888C109.652 16.888 110.75 17.144 111.689 17.656C112.649 18.168 113.385 18.84 113.897 19.672V17.144H119.369V35H113.897V32.472C113.364 33.304 112.617 33.976 111.657 34.488C110.718 35 109.62 35.256 108.361 35.256C106.91 35.256 105.588 34.8827 104.393 34.136C103.198 33.368 102.249 32.2907 101.545 30.904C100.862 29.496 100.521 27.8747 100.521 26.04ZM113.897 26.072C113.897 24.7067 113.513 23.6293 112.745 22.84C111.998 22.0507 111.081 21.656 109.993 21.656C108.905 21.656 107.977 22.0507 107.209 22.84C106.462 23.608 106.089 24.6747 106.089 26.04C106.089 27.4053 106.462 28.4933 107.209 29.304C107.977 30.0933 108.905 30.488 109.993 30.488C111.081 30.488 111.998 30.0933 112.745 29.304C113.513 28.5147 113.897 27.4373 113.897 26.072ZM128.8 11.32V35H123.328V11.32H128.8Z" fill="#1E2B4F"/>
<path d="M158.205 12.536V35H152.733V21.528L147.709 35H143.293L138.237 21.496V35H132.765V12.536H139.229L145.533 28.088L151.773 12.536H158.205ZM178.972 25.784C178.972 26.296 178.94 26.8293 178.876 27.384H166.492C166.578 28.4933 166.93 29.3467 167.548 29.944C168.188 30.52 168.967 30.808 169.884 30.808C171.25 30.808 172.199 30.232 172.732 29.08H178.556C178.258 30.2533 177.714 31.3093 176.924 32.248C176.156 33.1867 175.186 33.9227 174.012 34.456C172.839 34.9893 171.527 35.256 170.076 35.256C168.327 35.256 166.77 34.8827 165.404 34.136C164.039 33.3893 162.972 32.3227 162.204 30.936C161.436 29.5493 161.052 27.928 161.052 26.072C161.052 24.216 161.426 22.5947 162.172 21.208C162.94 19.8213 164.007 18.7547 165.372 18.008C166.738 17.2613 168.306 16.888 170.076 16.888C171.804 16.888 173.34 17.2507 174.684 17.976C176.028 18.7013 177.074 19.736 177.82 21.08C178.588 22.424 178.972 23.992 178.972 25.784ZM173.372 24.344C173.372 23.4053 173.052 22.6587 172.412 22.104C171.772 21.5493 170.972 21.272 170.012 21.272C169.095 21.272 168.316 21.5387 167.676 22.072C167.058 22.6053 166.674 23.3627 166.524 24.344H173.372ZM198.691 25.784C198.691 26.296 198.659 26.8293 198.595 27.384H186.211C186.296 28.4933 186.648 29.3467 187.267 29.944C187.907 30.52 188.686 30.808 189.603 30.808C190.968 30.808 191.918 30.232 192.451 29.08H198.275C197.976 30.2533 197.432 31.3093 196.643 32.248C195.875 33.1867 194.904 33.9227 193.731 34.456C192.558 34.9893 191.246 35.256 189.795 35.256C188.046 35.256 186.488 34.8827 185.123 34.136C183.758 33.3893 182.691 32.3227 181.923 30.936C181.155 29.5493 180.771 27.928 180.771 26.072C180.771 24.216 181.144 22.5947 181.891 21.208C182.659 19.8213 183.726 18.7547 185.091 18.008C186.456 17.2613 188.024 16.888 189.795 16.888C191.523 16.888 193.059 17.2507 194.403 17.976C195.747 18.7013 196.792 19.736 197.539 21.08C198.307 22.424 198.691 23.992 198.691 25.784ZM193.091 24.344C193.091 23.4053 192.771 22.6587 192.131 22.104C191.491 21.5493 190.691 21.272 189.731 21.272C188.814 21.272 188.035 21.5387 187.395 22.072C186.776 22.6053 186.392 23.3627 186.243 24.344H193.091ZM211.53 30.36V35H208.746C206.762 35 205.215 34.52 204.106 33.56C202.996 32.5787 202.442 30.9893 202.442 28.792V21.688H200.266V17.144H202.442V12.792H207.914V17.144H211.498V21.688H207.914V28.856C207.914 29.3893 208.042 29.7733 208.298 30.008C208.554 30.2427 208.98 30.36 209.578 30.36H211.53Z" fill="#0D63F3"/>
<path d="M139 46L145.679 52.8665C156.673 64.1686 174.827 64.1686 185.821 52.8665L192.5 46" stroke="#0D63F5" stroke-width="6" stroke-linecap="round"/>
</svg>
