<svg width="64" height="64" viewBox="0 0 64 64" fill="none" xmlns="http://www.w3.org/2000/svg">
<circle cx="32" cy="32" r="32" fill="#E7F0FC"/>
<mask id="mask0_223_353" style="mask-type:alpha" maskUnits="userSpaceOnUse" x="0" y="0" width="64" height="64">
<circle cx="32" cy="32" r="32" fill="#D9D9D9"/>
</mask>
<g mask="url(#mask0_223_353)">
<circle cx="3.35718" cy="24.5" r="11.5" fill="#0E67DD" stroke="#E7F0FC" stroke-width="2"/>
<path d="M24.7143 59.0002C24.7143 56.1956 24.1619 53.4184 23.0886 50.8272C22.0153 48.236 20.4421 45.8816 18.4589 43.8985C16.4757 41.9153 14.1213 40.3421 11.5302 39.2688C8.939 38.1955 6.1618 40.9288 3.35714 40.9288C0.552482 40.9288 -2.22471 38.1955 -4.81588 39.2688C-7.40705 40.3421 -9.76144 41.9153 -11.7446 43.8985C-13.7278 45.8816 -15.301 48.236 -16.3743 50.8272C-17.4476 53.4184 -18 56.1956 -18 59.0002L3.35714 59.0002H24.7143Z" fill="#0E67DD" stroke="#E7F0FC" stroke-width="2"/>
<circle cx="62.3572" cy="26.5" r="11.5" fill="#0E67DD" stroke="#E7F0FC" stroke-width="2"/>
<path d="M83.7143 61.0002C83.7143 58.1956 83.1619 55.4184 82.0886 52.8272C81.0153 50.236 79.4421 47.8816 77.4589 45.8985C75.4757 43.9153 73.1213 42.3421 70.5302 41.2688C67.939 40.1955 65.1618 42.9288 62.3571 42.9288C59.5525 42.9288 56.7753 40.1955 54.1841 41.2688C51.5929 42.3421 49.2386 43.9153 47.2554 45.8985C45.2722 47.8816 43.699 50.236 42.6257 52.8272C41.5524 55.4184 41 58.1956 41 61.0002L62.3571 61.0002H83.7143Z" fill="#0E67DD" stroke="#E7F0FC" stroke-width="2"/>
<circle cx="32.3572" cy="30.5" r="11.5" fill="#0E67DD" stroke="#E7F0FC" stroke-width="2"/>
<path d="M53.7143 67.0002H55.7143V65.0002C55.7143 61.9329 55.1101 58.8957 53.9363 56.0618C52.7625 53.228 51.042 50.6532 48.8731 48.4842C46.7042 46.3153 44.1294 44.5949 41.2955 43.421C39.1736 42.5421 37.1167 43.3035 35.779 43.8401C35.52 43.9441 35.2853 44.0415 35.0643 44.1333C34.6175 44.3188 34.2264 44.4812 33.8017 44.6275C33.2043 44.8333 32.7433 44.9288 32.3571 44.9288C31.971 44.9288 31.51 44.8333 30.9126 44.6275C30.4879 44.4812 30.0967 44.3188 29.65 44.1333C29.429 44.0415 29.1943 43.9441 28.9353 43.8401C27.5976 43.3035 25.5406 42.5421 23.4188 43.421C20.5849 44.5949 18.0101 46.3153 15.8411 48.4842C13.6722 50.6532 11.9518 53.228 10.778 56.0618C9.60415 58.8957 9 61.9329 9 65.0002L9 67.0002H11L32.3571 67.0002H53.7143Z" fill="#0E67DD" stroke="#E7F0FC" stroke-width="4"/>
</g>
</svg>
